<svg width="193" height="58" viewBox="0 0 193 58" fill="none" xmlns="http://www.w3.org/2000/svg">
<path d="M75.5287 7.95569H61.7879C59.9279 7.95569 58.2075 8.16494 56.6265 8.58344C55.092 8.95544 53.7435 9.58319 52.581 10.4667C51.4185 11.3502 50.4885 12.4894 49.791 13.8844C49.14 15.2329 48.7912 16.8837 48.7447 18.8367H75.3892V24.8352H48.7447C48.7447 26.9277 49.047 28.7179 49.6515 30.2059C50.3025 31.6474 51.2092 32.8332 52.3717 33.7632C53.5342 34.6932 54.906 35.3674 56.4869 35.7859C58.0679 36.2044 59.8349 36.4137 61.7879 36.4137H75.5287V42.4819H61.7879C58.8584 42.4819 56.1847 42.1099 53.7667 41.3659C51.3952 40.5754 49.3492 39.4362 47.6287 37.9482C45.9547 36.4602 44.6527 34.6234 43.7227 32.4379C42.8392 30.2524 42.3975 27.7182 42.3975 24.8352V19.5342C42.3975 16.6512 42.8392 14.1169 43.7227 11.9314C44.6527 9.74594 45.9547 7.9092 47.6287 6.4212C49.3492 4.9332 51.3952 3.8172 53.7667 3.0732C56.1847 2.2827 58.8584 1.88745 61.7879 1.88745H75.5287V7.95569Z" fill="#272727"/>
<path d="M22.2403 1.18994C25.7743 1.18994 28.9595 1.72469 31.796 2.79419C34.679 3.81719 37.3528 5.37494 39.8173 7.46743L35.8415 12.2802C33.8885 10.5132 31.796 9.23443 29.564 8.44393C27.332 7.60693 24.8908 7.18843 22.2403 7.18843C19.9153 7.18843 17.7763 7.58368 15.8233 8.37418C13.9168 9.16468 12.2661 10.2342 10.8711 11.5827C9.47606 12.9312 8.38331 14.5122 7.59281 16.3257C6.84881 18.1392 6.47681 20.0922 6.47681 22.1847C6.47681 24.5562 6.91856 26.6719 7.80206 28.5319C8.68556 30.3454 9.89456 31.9032 11.4291 33.2052C12.9636 34.5072 14.7538 35.5069 16.7998 36.2044C18.8923 36.8554 21.1475 37.1809 23.5655 37.1809C27.053 37.1809 29.9128 36.5532 32.1448 35.2977C34.4233 33.9957 35.5625 32.1357 35.5625 29.7177C35.5625 28.5552 35.144 27.5322 34.307 26.6487C33.47 25.7187 31.9123 25.2537 29.6338 25.2537H15.6141V19.1854H29.564C31.6565 19.1854 33.47 19.4412 35.0045 19.9527C36.539 20.4642 37.7945 21.1849 38.771 22.1149C39.794 23.0449 40.538 24.1609 41.003 25.4629C41.468 26.7184 41.7005 28.1134 41.7005 29.6479C41.7005 31.6474 41.282 33.4842 40.445 35.1582C39.608 36.7857 38.3758 38.2039 36.7483 39.4129C35.1673 40.5754 33.191 41.5054 30.8195 42.2029C28.4945 42.8539 25.8208 43.1794 22.7983 43.1794C19.4968 43.1794 16.4511 42.6679 13.6611 41.6449C10.8711 40.5754 8.45306 39.1107 6.40706 37.2507C4.40756 35.3442 2.84981 33.1122 1.73381 30.5547C0.617814 27.9507 0.0598145 25.1374 0.0598145 22.1149C0.0598145 19.1389 0.594564 16.3954 1.66406 13.8844C2.73356 11.3269 4.22156 9.11818 6.12806 7.25819C8.08106 5.35169 10.4061 3.86369 13.1031 2.79419C15.8466 1.72469 18.8923 1.18994 22.2403 1.18994Z" fill="#272727"/>
<path d="M185.286 52.626C185.729 52.626 186.093 52.7351 186.38 52.9533C186.667 53.1657 186.851 53.4729 186.931 53.8748C186.96 54.0012 186.977 54.139 186.983 54.2882C186.989 54.4318 186.992 54.5753 186.992 54.7189V56.4931H186.251V54.5811C186.251 54.2136 186.174 53.915 186.018 53.6853C185.869 53.4499 185.625 53.3322 185.286 53.3322C184.965 53.3322 184.727 53.4384 184.572 53.6509C184.417 53.8576 184.339 54.1418 184.339 54.5036V56.4931H183.598V54.5036C183.598 54.1418 183.521 53.8576 183.366 53.6509C183.211 53.4384 182.972 53.3322 182.651 53.3322C182.312 53.3322 182.065 53.4499 181.91 53.6853C181.761 53.915 181.686 54.2136 181.686 54.5811V56.4931H180.946V54.7189C180.946 54.5753 180.948 54.4318 180.954 54.2882C180.96 54.139 180.977 54.0012 181.006 53.8748C181.086 53.4729 181.27 53.1657 181.557 52.9533C181.844 52.7351 182.209 52.626 182.651 52.626C183.242 52.626 183.682 52.8844 183.969 53.4011C184.256 52.8844 184.695 52.626 185.286 52.626Z" fill="#272727"/>
<path d="M178.39 55.8557C178.803 55.8557 179.122 55.7379 179.346 55.5025C179.57 55.2614 179.682 54.9255 179.682 54.4948V52.7034H180.422V54.5465C180.422 54.8393 180.377 55.1092 180.285 55.3561C180.193 55.603 180.061 55.8183 179.888 56.0021C179.716 56.1801 179.504 56.3207 179.251 56.4241C178.999 56.5217 178.711 56.5705 178.39 56.5705C178.068 56.5705 177.781 56.5217 177.529 56.4241C177.276 56.3207 177.061 56.1801 176.883 56.0021C176.71 55.8183 176.578 55.603 176.486 55.3561C176.395 55.1092 176.349 54.8393 176.349 54.5465V52.7034H177.089V54.4948C177.089 54.9255 177.201 55.2614 177.425 55.5025C177.655 55.7379 177.976 55.8557 178.39 55.8557Z" fill="#272727"/>
<path d="M175.707 52.7034V56.4931H174.966V52.7034H175.707ZM175.707 51.3943V52.1608H174.966V51.3943H175.707Z" fill="#272727"/>
<path d="M170.824 53.8404C170.824 53.6337 170.876 53.4557 170.979 53.3064C171.088 53.1514 171.226 53.025 171.393 52.9274C171.565 52.8241 171.754 52.7494 171.961 52.7035C172.174 52.6518 172.386 52.626 172.598 52.626C172.931 52.626 173.239 52.669 173.52 52.7552C173.807 52.8413 174.08 52.9791 174.338 53.1686L173.856 53.7112C173.684 53.5791 173.491 53.4815 173.279 53.4184C173.066 53.3552 172.842 53.3236 172.607 53.3236C172.486 53.3236 172.366 53.3351 172.245 53.3581C172.125 53.3753 172.016 53.4069 171.918 53.4528C171.82 53.493 171.74 53.5447 171.677 53.6078C171.619 53.671 171.591 53.7456 171.591 53.8318C171.591 53.9811 171.654 54.0815 171.78 54.1332C171.906 54.1791 172.062 54.2021 172.245 54.2021H173.063C173.27 54.2021 173.46 54.2222 173.632 54.2624C173.81 54.2969 173.962 54.3571 174.088 54.4433C174.215 54.5237 174.312 54.6328 174.381 54.7706C174.456 54.9084 174.493 55.0778 174.493 55.2787C174.493 55.4969 174.442 55.6864 174.338 55.8472C174.241 56.0079 174.103 56.1429 173.925 56.252C173.753 56.3553 173.549 56.4357 173.313 56.4931C173.084 56.5448 172.84 56.5706 172.581 56.5706C172.214 56.5706 171.861 56.5132 171.522 56.3984C171.183 56.2835 170.87 56.0912 170.583 55.8213L171.117 55.2529C171.284 55.4194 171.487 55.5629 171.728 55.6835C171.97 55.8041 172.248 55.8644 172.564 55.8644C172.69 55.8644 172.819 55.8558 172.952 55.8385C173.089 55.8156 173.216 55.7811 173.33 55.7352C173.445 55.6893 173.54 55.629 173.615 55.5543C173.689 55.4797 173.727 55.3878 173.727 55.2787C173.727 55.1179 173.658 55.0175 173.52 54.9773C173.382 54.9313 173.201 54.9084 172.977 54.9084H172.34C172.156 54.9084 171.975 54.8969 171.797 54.8739C171.619 54.8509 171.456 54.8021 171.306 54.7275C171.163 54.6529 171.045 54.5466 170.953 54.4088C170.867 54.2653 170.824 54.0758 170.824 53.8404Z" fill="#272727"/>
<path d="M166.087 54.5983C166.087 54.3055 166.139 54.0385 166.242 53.7973C166.351 53.5562 166.5 53.3495 166.69 53.1772C166.879 52.9992 167.103 52.8643 167.362 52.7724C167.62 52.6748 167.901 52.626 168.206 52.626C168.51 52.626 168.791 52.6748 169.05 52.7724C169.308 52.8643 169.532 52.9992 169.722 53.1772C169.911 53.3495 170.057 53.5562 170.161 53.7973C170.27 54.0385 170.324 54.3055 170.324 54.5983C170.324 54.8911 170.27 55.1581 170.161 55.3993C170.057 55.6405 169.911 55.85 169.722 56.028C169.532 56.2003 169.308 56.3352 169.05 56.4328C168.791 56.5247 168.51 56.5706 168.206 56.5706C167.901 56.5706 167.62 56.5247 167.362 56.4328C167.103 56.3352 166.879 56.2003 166.69 56.028C166.5 55.85 166.351 55.6405 166.242 55.3993C166.139 55.1581 166.087 54.8911 166.087 54.5983ZM169.566 54.5983C169.566 54.3973 169.529 54.2193 169.455 54.0643C169.386 53.9035 169.291 53.7715 169.17 53.6681C169.05 53.559 168.906 53.4758 168.74 53.4184C168.573 53.3609 168.395 53.3322 168.206 53.3322C168.016 53.3322 167.838 53.3609 167.672 53.4184C167.511 53.4758 167.367 53.559 167.241 53.6681C167.12 53.7715 167.023 53.9035 166.948 54.0643C166.879 54.2193 166.845 54.3973 166.845 54.5983C166.845 54.7993 166.879 54.9801 166.948 55.1409C167.023 55.2959 167.12 55.428 167.241 55.5371C167.367 55.6462 167.511 55.7295 167.672 55.7869C167.838 55.8385 168.016 55.8644 168.206 55.8644C168.395 55.8644 168.573 55.8385 168.74 55.7869C168.906 55.7295 169.05 55.6462 169.17 55.5371C169.291 55.428 169.386 55.2959 169.455 55.1409C169.529 54.9801 169.566 54.7993 169.566 54.5983Z" fill="#272727"/>
<path d="M162.235 57.7161H161.494V54.7619C161.494 54.4117 161.546 54.1045 161.649 53.8404C161.759 53.5705 161.908 53.3466 162.097 53.1686C162.287 52.9906 162.511 52.8557 162.769 52.7638C163.027 52.6719 163.306 52.626 163.605 52.626C163.903 52.626 164.179 52.6719 164.431 52.7638C164.69 52.8557 164.914 52.9877 165.103 53.16C165.293 53.3265 165.439 53.5332 165.542 53.7801C165.651 54.0212 165.706 54.294 165.706 54.5983C165.706 54.8911 165.654 55.1581 165.551 55.3993C165.453 55.6405 165.313 55.85 165.129 56.028C164.945 56.2003 164.727 56.3352 164.474 56.4328C164.222 56.5247 163.94 56.5706 163.63 56.5706C163.343 56.5706 163.076 56.519 162.829 56.4156C162.582 56.3123 162.384 56.1773 162.235 56.0108V57.7161ZM164.948 54.5983C164.948 54.3973 164.914 54.2193 164.845 54.0643C164.776 53.9035 164.681 53.7715 164.561 53.6681C164.44 53.559 164.296 53.4758 164.13 53.4184C163.969 53.3609 163.794 53.3322 163.605 53.3322C163.415 53.3322 163.237 53.3638 163.071 53.427C162.91 53.4844 162.769 53.5705 162.649 53.6853C162.528 53.7944 162.43 53.9265 162.356 54.0815C162.287 54.2366 162.252 54.4088 162.252 54.5983C162.252 54.8108 162.287 54.9974 162.356 55.1581C162.43 55.3132 162.528 55.4452 162.649 55.5543C162.769 55.6577 162.91 55.7352 163.071 55.7869C163.237 55.8385 163.415 55.8644 163.605 55.8644C163.794 55.8644 163.969 55.8385 164.13 55.7869C164.296 55.7295 164.44 55.6462 164.561 55.5371C164.681 55.428 164.776 55.2959 164.845 55.1409C164.914 54.9801 164.948 54.7993 164.948 54.5983Z" fill="#272727"/>
<path d="M159.186 52.626C159.628 52.626 159.993 52.7351 160.28 52.9533C160.567 53.1657 160.751 53.4729 160.831 53.8748C160.86 54.0012 160.877 54.139 160.883 54.2882C160.889 54.4318 160.891 54.5753 160.891 54.7189V56.4931H160.151V54.5811C160.151 54.2136 160.073 53.915 159.918 53.6853C159.769 53.4499 159.525 53.3322 159.186 53.3322C158.865 53.3322 158.626 53.4384 158.471 53.6509C158.316 53.8576 158.239 54.1418 158.239 54.5036V56.4931H157.498V54.5036C157.498 54.1418 157.42 53.8576 157.265 53.6509C157.11 53.4384 156.872 53.3322 156.551 53.3322C156.212 53.3322 155.965 53.4499 155.81 53.6853C155.661 53.915 155.586 54.2136 155.586 54.5811V56.4931H154.845V54.7189C154.845 54.5753 154.848 54.4318 154.854 54.2882C154.86 54.139 154.877 54.0012 154.906 53.8748C154.986 53.4729 155.17 53.1657 155.457 52.9533C155.744 52.7351 156.108 52.626 156.551 52.626C157.142 52.626 157.581 52.8844 157.868 53.4011C158.155 52.8844 158.595 52.626 159.186 52.626Z" fill="#272727"/>
<path d="M150.855 52.7034V54.4345C150.855 54.8709 150.97 55.2068 151.199 55.4422C151.429 55.6777 151.739 55.7954 152.13 55.7954C152.526 55.7954 152.845 55.6863 153.086 55.4681C153.333 55.2499 153.456 54.9169 153.456 54.469V52.7034H154.197V55.6403C154.197 55.9734 154.151 56.2748 154.059 56.5447C153.973 56.8145 153.841 57.0442 153.663 57.2337C153.485 57.4289 153.264 57.5782 153 57.6816C152.735 57.7907 152.428 57.8452 152.078 57.8452C151.906 57.8452 151.728 57.8309 151.544 57.8021C151.366 57.7734 151.191 57.7218 151.019 57.6471C150.846 57.5725 150.683 57.4691 150.528 57.337C150.373 57.2107 150.235 57.0471 150.114 56.8461L150.752 56.5274C150.935 56.7686 151.131 56.9322 151.337 57.0184C151.544 57.1102 151.791 57.1562 152.078 57.1562C152.262 57.1562 152.434 57.1332 152.595 57.0873C152.756 57.0413 152.896 56.9667 153.017 56.8633C153.137 56.76 153.235 56.6308 153.31 56.4758C153.384 56.315 153.427 56.1226 153.439 55.8987C153.307 56.0939 153.12 56.2432 152.879 56.3466C152.638 56.4442 152.379 56.493 152.104 56.493C151.782 56.493 151.495 56.4413 151.243 56.338C150.996 56.2289 150.789 56.0825 150.622 55.8987C150.456 55.715 150.33 55.4997 150.243 55.2528C150.157 55.0001 150.114 54.7302 150.114 54.4432V52.7034H150.855Z" fill="#272727"/>
<path d="M145.116 52.9532C145.116 52.6891 145.179 52.4594 145.305 52.2642C145.438 52.0632 145.607 51.8996 145.814 51.7732C146.02 51.6469 146.253 51.5522 146.511 51.489C146.77 51.4259 147.028 51.3943 147.286 51.3943C147.43 51.3943 147.585 51.4029 147.752 51.4201C147.924 51.4374 148.102 51.4689 148.286 51.5149C148.469 51.5608 148.656 51.6297 148.845 51.7216C149.041 51.8077 149.23 51.9197 149.414 52.0575L148.94 52.669C148.71 52.5025 148.458 52.3733 148.182 52.2814C147.907 52.1838 147.611 52.135 147.295 52.135C147.1 52.135 146.916 52.1522 146.744 52.1867C146.577 52.2154 146.431 52.2642 146.305 52.3331C146.184 52.3962 146.086 52.4795 146.012 52.5829C145.943 52.6805 145.908 52.801 145.908 52.9446C145.908 53.1857 145.997 53.3494 146.175 53.4355C146.359 53.5159 146.583 53.5561 146.847 53.5561H147.889C148.142 53.5561 148.375 53.5819 148.587 53.6336C148.799 53.6795 148.983 53.7599 149.138 53.8748C149.293 53.9839 149.414 54.1274 149.5 54.3054C149.592 54.4777 149.638 54.6872 149.638 54.9341C149.638 55.2155 149.577 55.4595 149.457 55.6662C149.336 55.8729 149.17 56.0452 148.957 56.183C148.751 56.3151 148.507 56.4155 148.225 56.4844C147.944 56.5476 147.645 56.5792 147.329 56.5792C147.134 56.5792 146.928 56.562 146.709 56.5275C146.497 56.4931 146.282 56.4414 146.063 56.3725C145.845 56.2978 145.63 56.2002 145.417 56.0796C145.211 55.9591 145.016 55.8126 144.832 55.6404L145.366 55.0375C145.624 55.2844 145.914 55.4796 146.236 55.6232C146.557 55.7667 146.896 55.8385 147.252 55.8385C147.47 55.8385 147.677 55.8213 147.872 55.7868C148.067 55.7524 148.237 55.6978 148.38 55.6232C148.524 55.5485 148.636 55.4538 148.716 55.3389C148.802 55.2241 148.845 55.0834 148.845 54.9169C148.845 54.7906 148.82 54.6872 148.768 54.6069C148.716 54.5265 148.644 54.4662 148.553 54.426C148.466 54.3801 148.357 54.3513 148.225 54.3399C148.099 54.3226 147.958 54.314 147.803 54.314H146.976C146.752 54.314 146.528 54.2997 146.305 54.271C146.086 54.2365 145.888 54.1705 145.71 54.0729C145.532 53.9753 145.389 53.8374 145.28 53.6595C145.171 53.4815 145.116 53.246 145.116 52.9532Z" fill="#272727"/>
<path d="M139.218 52.7034V54.4345C139.218 54.8709 139.333 55.2068 139.562 55.4422C139.792 55.6777 140.102 55.7954 140.492 55.7954C140.889 55.7954 141.207 55.6863 141.448 55.4681C141.695 55.2499 141.819 54.9169 141.819 54.469V52.7034H142.56V55.6403C142.56 55.9734 142.514 56.2748 142.422 56.5447C142.336 56.8145 142.204 57.0442 142.026 57.2337C141.848 57.4289 141.626 57.5782 141.362 57.6816C141.098 57.7907 140.791 57.8452 140.441 57.8452C140.269 57.8452 140.091 57.8309 139.907 57.8021C139.729 57.7734 139.554 57.7218 139.381 57.6471C139.209 57.5725 139.046 57.4691 138.89 57.337C138.735 57.2107 138.598 57.0471 138.477 56.8461L139.114 56.5274C139.298 56.7686 139.493 56.9322 139.7 57.0184C139.907 57.1102 140.154 57.1562 140.441 57.1562C140.625 57.1562 140.797 57.1332 140.958 57.0873C141.118 57.0413 141.259 56.9667 141.38 56.8633C141.5 56.76 141.598 56.6308 141.672 56.4758C141.747 56.315 141.79 56.1226 141.802 55.8987C141.67 56.0939 141.483 56.2432 141.242 56.3466C141.001 56.4442 140.742 56.493 140.467 56.493C140.145 56.493 139.858 56.4413 139.605 56.338C139.358 56.2289 139.152 56.0825 138.985 55.8987C138.819 55.715 138.692 55.4997 138.606 55.2528C138.52 55.0001 138.477 54.7302 138.477 54.4432V52.7034H139.218Z" fill="#272727"/>
<path d="M134.508 54.5811C134.508 54.782 134.542 54.96 134.611 55.1151C134.686 55.2701 134.784 55.4022 134.904 55.5113C135.03 55.6146 135.174 55.695 135.335 55.7524C135.501 55.8041 135.679 55.8299 135.869 55.8299C136.058 55.8299 136.233 55.807 136.394 55.761C136.555 55.7094 136.696 55.6347 136.816 55.5371C136.937 55.4337 137.031 55.3046 137.1 55.1495C137.169 54.9945 137.204 54.8108 137.204 54.5983C137.204 54.4088 137.169 54.2366 137.1 54.0815C137.031 53.9265 136.937 53.7944 136.816 53.6853C136.696 53.5705 136.555 53.4844 136.394 53.427C136.233 53.3638 136.058 53.3322 135.869 53.3322C135.679 53.3322 135.501 53.3609 135.335 53.4184C135.174 53.47 135.03 53.5504 134.904 53.6595C134.784 53.7686 134.686 53.9007 134.611 54.0557C134.542 54.2107 134.508 54.3859 134.508 54.5811ZM135.843 57.1563C136.027 57.1563 136.196 57.1333 136.351 57.0874C136.512 57.0472 136.653 56.9783 136.773 56.8807C136.894 56.7831 136.991 56.6568 137.066 56.5017C137.141 56.3524 137.186 56.1658 137.204 55.9419C137.054 56.1256 136.859 56.2663 136.618 56.3639C136.377 56.4558 136.119 56.5017 135.843 56.5017C135.521 56.5017 135.231 56.4587 134.973 56.3725C134.715 56.2807 134.494 56.1515 134.31 55.985C134.132 55.8127 133.994 55.6089 133.896 55.3735C133.799 55.138 133.75 54.8739 133.75 54.5811C133.75 54.2825 133.802 54.0126 133.905 53.7715C134.014 53.5246 134.163 53.3179 134.353 53.1514C134.542 52.9848 134.766 52.8557 135.025 52.7638C135.283 52.6719 135.564 52.626 135.869 52.626C136.167 52.626 136.443 52.6719 136.696 52.7638C136.954 52.8557 137.175 52.9906 137.359 53.1686C137.548 53.3466 137.695 53.5705 137.798 53.8404C137.907 54.1102 137.962 54.4203 137.962 54.7706V55.6405C137.962 55.9735 137.916 56.2749 137.824 56.5448C137.738 56.8147 137.606 57.0443 137.428 57.2338C137.25 57.429 137.029 57.5783 136.764 57.6817C136.5 57.7908 136.193 57.8453 135.843 57.8453C135.671 57.8453 135.493 57.831 135.309 57.8023C135.131 57.7736 134.956 57.7219 134.784 57.6472C134.611 57.5726 134.448 57.4692 134.293 57.3372C134.138 57.2109 134 57.0472 133.879 56.8462L134.517 56.5276C134.7 56.7687 134.896 56.9324 135.102 57.0185C135.309 57.1104 135.556 57.1563 135.843 57.1563Z" fill="#272727"/>
<path d="M129.128 54.5983C129.128 54.3055 129.18 54.0385 129.283 53.7973C129.392 53.5562 129.542 53.3495 129.731 53.1772C129.921 52.9992 130.144 52.8643 130.403 52.7724C130.661 52.6748 130.943 52.626 131.247 52.626C131.551 52.626 131.833 52.6748 132.091 52.7724C132.349 52.8643 132.573 52.9992 132.763 53.1772C132.952 53.3495 133.099 53.5562 133.202 53.7973C133.311 54.0385 133.366 54.3055 133.366 54.5983C133.366 54.8911 133.311 55.1581 133.202 55.3993C133.099 55.6405 132.952 55.85 132.763 56.028C132.573 56.2003 132.349 56.3352 132.091 56.4328C131.833 56.5247 131.551 56.5706 131.247 56.5706C130.943 56.5706 130.661 56.5247 130.403 56.4328C130.144 56.3352 129.921 56.2003 129.731 56.028C129.542 55.85 129.392 55.6405 129.283 55.3993C129.18 55.1581 129.128 54.8911 129.128 54.5983ZM132.608 54.5983C132.608 54.3973 132.57 54.2193 132.496 54.0643C132.427 53.9035 132.332 53.7715 132.212 53.6681C132.091 53.559 131.947 53.4758 131.781 53.4184C131.614 53.3609 131.436 53.3322 131.247 53.3322C131.057 53.3322 130.879 53.3609 130.713 53.4184C130.552 53.4758 130.409 53.559 130.282 53.6681C130.162 53.7715 130.064 53.9035 129.989 54.0643C129.921 54.2193 129.886 54.3973 129.886 54.5983C129.886 54.7993 129.921 54.9801 129.989 55.1409C130.064 55.2959 130.162 55.428 130.282 55.5371C130.409 55.6462 130.552 55.7295 130.713 55.7869C130.879 55.8385 131.057 55.8644 131.247 55.8644C131.436 55.8644 131.614 55.8385 131.781 55.7869C131.947 55.7295 132.091 55.6462 132.212 55.5371C132.332 55.428 132.427 55.2959 132.496 55.1409C132.57 54.9801 132.608 54.7993 132.608 54.5983Z" fill="#272727"/>
<path d="M129.391 56.4242C129.259 56.4701 129.129 56.5017 129.003 56.519C128.882 56.5419 128.771 56.5534 128.667 56.5534C128.374 56.5534 128.127 56.5132 127.926 56.4328C127.731 56.3467 127.573 56.229 127.453 56.0797C127.332 55.9247 127.246 55.7409 127.194 55.5285C127.148 55.316 127.125 55.0777 127.125 54.8136V51.4805H127.866V54.7964C127.866 55.1352 127.926 55.3964 128.047 55.5802C128.168 55.7639 128.366 55.8558 128.641 55.8558C128.722 55.8558 128.805 55.85 128.891 55.8385C128.977 55.8271 129.069 55.8041 129.167 55.7696L129.391 56.4242Z" fill="#272727"/>
<path d="M122.475 54.5983C122.475 54.3055 122.526 54.0385 122.63 53.7973C122.739 53.5562 122.888 53.3495 123.078 53.1772C123.267 52.9992 123.491 52.8643 123.749 52.7724C124.008 52.6748 124.289 52.626 124.593 52.626C124.898 52.626 125.179 52.6748 125.437 52.7724C125.696 52.8643 125.92 52.9992 126.109 53.1772C126.299 53.3495 126.445 53.5562 126.548 53.7973C126.658 54.0385 126.712 54.3055 126.712 54.5983C126.712 54.8911 126.658 55.1581 126.548 55.3993C126.445 55.6405 126.299 55.85 126.109 56.028C125.92 56.2003 125.696 56.3352 125.437 56.4328C125.179 56.5247 124.898 56.5706 124.593 56.5706C124.289 56.5706 124.008 56.5247 123.749 56.4328C123.491 56.3352 123.267 56.2003 123.078 56.028C122.888 55.85 122.739 55.6405 122.63 55.3993C122.526 55.1581 122.475 54.8911 122.475 54.5983ZM125.954 54.5983C125.954 54.3973 125.917 54.2193 125.842 54.0643C125.773 53.9035 125.679 53.7715 125.558 53.6681C125.437 53.559 125.294 53.4758 125.127 53.4184C124.961 53.3609 124.783 53.3322 124.593 53.3322C124.404 53.3322 124.226 53.3609 124.059 53.4184C123.899 53.4758 123.755 53.559 123.629 53.6681C123.508 53.7715 123.411 53.9035 123.336 54.0643C123.267 54.2193 123.233 54.3973 123.233 54.5983C123.233 54.7993 123.267 54.9801 123.336 55.1409C123.411 55.2959 123.508 55.428 123.629 55.5371C123.755 55.6462 123.899 55.7295 124.059 55.7869C124.226 55.8385 124.404 55.8644 124.593 55.8644C124.783 55.8644 124.961 55.8385 125.127 55.7869C125.294 55.7295 125.437 55.6462 125.558 55.5371C125.679 55.428 125.773 55.2959 125.842 55.1409C125.917 54.9801 125.954 54.7993 125.954 54.5983Z" fill="#272727"/>
<path d="M119.965 53.3322C119.552 53.3322 119.23 53.4528 119.001 53.694C118.777 53.9294 118.665 54.2624 118.665 54.693V56.4931H117.924V54.65C117.924 54.3571 117.97 54.0873 118.062 53.8404C118.154 53.5935 118.286 53.381 118.458 53.203C118.636 53.0193 118.851 52.8786 119.104 52.781C119.357 52.6777 119.644 52.626 119.965 52.626C120.287 52.626 120.574 52.6777 120.827 52.781C121.079 52.8786 121.292 53.0193 121.464 53.203C121.636 53.381 121.768 53.5935 121.86 53.8404C121.952 54.0873 121.998 54.3571 121.998 54.65V56.4931H121.257V54.693C121.257 54.2624 121.145 53.9294 120.921 53.694C120.697 53.4528 120.379 53.3322 119.965 53.3322Z" fill="#272727"/>
<path d="M117.324 52.7034V56.4931H116.583V52.7034H117.324ZM117.324 51.3943V52.1608H116.583V51.3943H117.324Z" fill="#272727"/>
<path d="M115.295 52.626C115.668 52.626 116.009 52.7006 116.32 52.8499L116.001 53.5217C115.892 53.4643 115.777 53.4212 115.656 53.3925C115.536 53.3581 115.418 53.3408 115.303 53.3408C114.913 53.3408 114.611 53.4614 114.399 53.7026C114.192 53.938 114.089 54.271 114.089 54.7017V56.4931H113.348V54.65C113.348 54.3571 113.391 54.0873 113.477 53.8404C113.563 53.5935 113.69 53.381 113.856 53.203C114.023 53.0193 114.227 52.8786 114.468 52.781C114.709 52.6777 114.985 52.626 115.295 52.626Z" fill="#272727"/>
<path d="M111.244 55.8644C111.721 55.8644 112.134 55.6979 112.484 55.3648L112.958 55.8816C112.7 56.1285 112.433 56.3065 112.157 56.4156C111.887 56.519 111.583 56.5706 111.244 56.5706C110.94 56.5706 110.658 56.5247 110.4 56.4328C110.147 56.3352 109.926 56.2003 109.737 56.028C109.553 55.85 109.407 55.6405 109.298 55.3993C109.194 55.1581 109.143 54.8911 109.143 54.5983C109.143 54.3055 109.194 54.0385 109.298 53.7973C109.407 53.5562 109.553 53.3495 109.737 53.1772C109.926 52.9992 110.147 52.8643 110.4 52.7724C110.658 52.6748 110.94 52.626 111.244 52.626C111.571 52.626 111.867 52.6719 112.131 52.7638C112.395 52.8499 112.645 52.9906 112.881 53.1858L112.415 53.7456C112.232 53.6021 112.051 53.4987 111.873 53.4356C111.695 53.3667 111.485 53.3322 111.244 53.3322C111.055 53.3322 110.877 53.3609 110.71 53.4184C110.549 53.4758 110.409 53.559 110.288 53.6681C110.168 53.7715 110.073 53.9035 110.004 54.0643C109.935 54.2193 109.901 54.3973 109.901 54.5983C109.901 54.7993 109.935 54.9801 110.004 55.1409C110.073 55.2959 110.168 55.428 110.288 55.5371C110.409 55.6462 110.549 55.7295 110.71 55.7869C110.877 55.8385 111.055 55.8644 111.244 55.8644Z" fill="#272727"/>
<path d="M104.521 54.5983C104.521 54.3055 104.572 54.0385 104.676 53.7973C104.785 53.5562 104.934 53.3495 105.124 53.1772C105.313 52.9992 105.537 52.8643 105.795 52.7724C106.054 52.6748 106.335 52.626 106.639 52.626C106.944 52.626 107.225 52.6748 107.484 52.7724C107.742 52.8643 107.966 52.9992 108.155 53.1772C108.345 53.3495 108.491 53.5562 108.595 53.7973C108.704 54.0385 108.758 54.3055 108.758 54.5983C108.758 54.8911 108.704 55.1581 108.595 55.3993C108.491 55.6405 108.345 55.85 108.155 56.028C107.966 56.2003 107.742 56.3352 107.484 56.4328C107.225 56.5247 106.944 56.5706 106.639 56.5706C106.335 56.5706 106.054 56.5247 105.795 56.4328C105.537 56.3352 105.313 56.2003 105.124 56.028C104.934 55.85 104.785 55.6405 104.676 55.3993C104.572 55.1581 104.521 54.8911 104.521 54.5983ZM108 54.5983C108 54.3973 107.963 54.2193 107.888 54.0643C107.819 53.9035 107.725 53.7715 107.604 53.6681C107.484 53.559 107.34 53.4758 107.173 53.4184C107.007 53.3609 106.829 53.3322 106.639 53.3322C106.45 53.3322 106.272 53.3609 106.106 53.4184C105.945 53.4758 105.801 53.559 105.675 53.6681C105.554 53.7715 105.457 53.9035 105.382 54.0643C105.313 54.2193 105.279 54.3973 105.279 54.5983C105.279 54.7993 105.313 54.9801 105.382 55.1409C105.457 55.2959 105.554 55.428 105.675 55.5371C105.801 55.6462 105.945 55.7295 106.106 55.7869C106.272 55.8385 106.45 55.8644 106.639 55.8644C106.829 55.8644 107.007 55.8385 107.173 55.7869C107.34 55.7295 107.484 55.6462 107.604 55.5371C107.725 55.428 107.819 55.2959 107.888 55.1409C107.963 54.9801 108 54.7993 108 54.5983Z" fill="#272727"/>
<path d="M103.353 51.4805H104.093V54.4347C104.093 54.7849 104.039 55.095 103.93 55.3648C103.826 55.629 103.68 55.85 103.491 56.028C103.301 56.206 103.077 56.341 102.819 56.4328C102.56 56.5247 102.282 56.5706 101.983 56.5706C101.685 56.5706 101.406 56.5247 101.148 56.4328C100.895 56.341 100.674 56.2118 100.485 56.0452C100.295 55.873 100.146 55.6663 100.037 55.4251C99.9335 55.1782 99.8818 54.9026 99.8818 54.5983C99.8818 54.3055 99.9306 54.0385 100.028 53.7973C100.132 53.5562 100.275 53.3494 100.459 53.1772C100.643 52.9992 100.861 52.8643 101.113 52.7724C101.366 52.6748 101.647 52.626 101.958 52.626C102.245 52.626 102.512 52.6776 102.759 52.781C103.005 52.8844 103.204 53.0193 103.353 53.1858V51.4805ZM100.64 54.5983C100.64 54.7993 100.674 54.9801 100.743 55.1409C100.812 55.2959 100.907 55.428 101.027 55.5371C101.148 55.6462 101.289 55.7294 101.449 55.7869C101.616 55.8385 101.794 55.8644 101.983 55.8644C102.173 55.8644 102.348 55.8357 102.509 55.7783C102.675 55.7151 102.819 55.629 102.939 55.5199C103.06 55.405 103.155 55.2701 103.224 55.1151C103.298 54.96 103.336 54.7878 103.336 54.5983C103.336 54.3858 103.298 54.2021 103.224 54.0471C103.155 53.8863 103.06 53.7542 102.939 53.6509C102.819 53.5418 102.675 53.4614 102.509 53.4097C102.348 53.3581 102.173 53.3322 101.983 53.3322C101.794 53.3322 101.616 53.3609 101.449 53.4183C101.289 53.4758 101.148 53.559 101.027 53.6681C100.907 53.7715 100.812 53.9035 100.743 54.0643C100.674 54.2193 100.64 54.3973 100.64 54.5983Z" fill="#272727"/>
<path d="M97.3725 53.3322C96.9591 53.3322 96.6376 53.4528 96.4079 53.694C96.184 53.9294 96.072 54.2624 96.072 54.693V56.4931H95.3313V54.65C95.3313 54.3571 95.3772 54.0873 95.4691 53.8404C95.561 53.5935 95.693 53.381 95.8653 53.203C96.0433 53.0193 96.2586 52.8786 96.5112 52.781C96.7639 52.6777 97.051 52.626 97.3725 52.626C97.6941 52.626 97.9812 52.6777 98.2338 52.781C98.4865 52.8786 98.6989 53.0193 98.8712 53.203C99.0434 53.381 99.1755 53.5935 99.2673 53.8404C99.3592 54.0873 99.4051 54.3571 99.4051 54.65V56.4931H98.6644V54.693C98.6644 54.2624 98.5525 53.9294 98.3285 53.694C98.1046 53.4528 97.7859 53.3322 97.3725 53.3322Z" fill="#272727"/>
<path d="M94.7742 52.2298H93.0775C92.8478 52.2298 92.6353 52.2556 92.4401 52.3073C92.2506 52.3532 92.0841 52.4307 91.9406 52.5398C91.797 52.6489 91.6822 52.7896 91.5961 52.9619C91.5157 53.1284 91.4726 53.3322 91.4669 53.5734H94.757V54.3141H91.4669C91.4669 54.5725 91.5042 54.7935 91.5788 54.9773C91.6592 55.1553 91.7712 55.3017 91.9147 55.4165C92.0583 55.5314 92.2277 55.6146 92.4229 55.6663C92.6181 55.718 92.8363 55.7438 93.0775 55.7438H94.7742V56.4931H93.0775C92.7157 56.4931 92.3856 56.4472 92.087 56.3553C91.7942 56.2577 91.5415 56.117 91.3291 55.9333C91.1224 55.7495 90.9616 55.5227 90.8468 55.2529C90.7377 54.983 90.6831 54.6701 90.6831 54.3141V53.6595C90.6831 53.3035 90.7377 52.9906 90.8468 52.7207C90.9616 52.4508 91.1224 52.224 91.3291 52.0403C91.5415 51.8566 91.7942 51.7188 92.087 51.6269C92.3856 51.5293 92.7157 51.4805 93.0775 51.4805H94.7742V52.2298Z" fill="#272727"/>
<path d="M87.025 52.6431C86.7723 52.4479 86.5312 52.313 86.3015 52.2383C86.0776 52.1637 85.8307 52.1264 85.5608 52.1264C85.3886 52.1264 85.2249 52.1407 85.0699 52.1694C84.9149 52.1981 84.777 52.2441 84.6565 52.3072C84.5416 52.3704 84.4498 52.4537 84.3809 52.557C84.3177 52.6546 84.2861 52.7781 84.2861 52.9274C84.2861 53.1341 84.3895 53.2891 84.5962 53.3925C84.8029 53.4958 85.0555 53.5475 85.3541 53.5475H87.1886V53.0221H87.9379V53.5475H88.5408V54.2796H87.9379V54.4949C87.9379 54.8566 87.8776 55.1696 87.7571 55.4337C87.6422 55.6921 87.4786 55.9074 87.2661 56.0796C87.0594 56.2462 86.8097 56.3725 86.5168 56.4586C86.2297 56.539 85.9139 56.5792 85.5694 56.5792C85.2881 56.5792 85.0153 56.5505 84.7512 56.4931C84.4928 56.4356 84.2603 56.3466 84.0536 56.2261C83.8526 56.0997 83.6918 55.939 83.5713 55.7437C83.4507 55.5428 83.3904 55.3016 83.3904 55.0203C83.3904 54.7332 83.4593 54.5006 83.5971 54.3226C83.7406 54.1389 83.9129 54.0011 84.1139 53.9092C83.7004 53.7083 83.4937 53.3724 83.4937 52.9015C83.4937 52.6431 83.5454 52.4192 83.6488 52.2297C83.7521 52.0402 83.8957 51.8852 84.0794 51.7646C84.2689 51.6383 84.4899 51.5464 84.7426 51.489C84.9952 51.4259 85.268 51.3943 85.5608 51.3943C85.9398 51.3943 86.2814 51.446 86.5857 51.5493C86.8958 51.6527 87.1972 51.8106 87.4901 52.023L87.025 52.6431ZM85.5694 55.8471C85.8106 55.8471 86.0288 55.8241 86.224 55.7782C86.425 55.7323 86.5943 55.6576 86.7321 55.5543C86.8757 55.4452 86.9877 55.3074 87.068 55.1409C87.1484 54.9686 87.1886 54.759 87.1886 54.5121V54.2796H85.3024C85.1646 54.2796 85.0268 54.2939 84.889 54.3226C84.7569 54.3456 84.6364 54.3887 84.5273 54.4518C84.4239 54.5092 84.3407 54.5868 84.2775 54.6844C84.2143 54.7762 84.1828 54.8882 84.1828 55.0203C84.1828 55.181 84.223 55.316 84.3033 55.4251C84.3837 55.5284 84.49 55.6117 84.622 55.6748C84.7541 55.738 84.9034 55.7839 85.0699 55.8126C85.2364 55.8356 85.4029 55.8471 85.5694 55.8471Z" fill="#272727"/>
<path d="M77.6469 52.7034V54.4345C77.6469 54.8709 77.7618 55.2068 77.9915 55.4422C78.2211 55.6777 78.5312 55.7954 78.9216 55.7954C79.3178 55.7954 79.6365 55.6863 79.8777 55.4681C80.1246 55.2499 80.248 54.9169 80.248 54.469V52.7034H80.9887V55.6403C80.9887 55.9734 80.9428 56.2748 80.8509 56.5447C80.7648 56.8145 80.6327 57.0442 80.4547 57.2337C80.2767 57.4289 80.0557 57.5782 79.7915 57.6816C79.5274 57.7907 79.2202 57.8452 78.87 57.8452C78.6977 57.8452 78.5197 57.8309 78.336 57.8021C78.158 57.7734 77.9828 57.7218 77.8106 57.6471C77.6383 57.5725 77.4747 57.4691 77.3197 57.337C77.1646 57.2107 77.0268 57.0471 76.9062 56.8461L77.5436 56.5274C77.7273 56.7686 77.9226 56.9322 78.1293 57.0184C78.336 57.1102 78.5829 57.1562 78.87 57.1562C79.0537 57.1562 79.226 57.1332 79.3867 57.0873C79.5475 57.0413 79.6882 56.9667 79.8088 56.8633C79.9293 56.76 80.027 56.6308 80.1016 56.4758C80.1762 56.315 80.2193 56.1226 80.2308 55.8987C80.0987 56.0939 79.9121 56.2432 79.671 56.3466C79.4298 56.4442 79.1714 56.493 78.8958 56.493C78.5743 56.493 78.2872 56.4413 78.0345 56.338C77.7876 56.2289 77.5809 56.0825 77.4144 55.8987C77.2479 55.715 77.1216 55.4997 77.0354 55.2528C76.9493 55.0001 76.9062 54.7302 76.9062 54.4432V52.7034H77.6469Z" fill="#272727"/>
<path d="M72.9376 54.5811C72.9376 54.782 72.9721 54.96 73.041 55.1151C73.1156 55.2701 73.2132 55.4022 73.3338 55.5113C73.4601 55.6146 73.6037 55.695 73.7644 55.7524C73.931 55.8041 74.109 55.8299 74.2984 55.8299C74.4879 55.8299 74.663 55.807 74.8238 55.761C74.9846 55.7094 75.1253 55.6347 75.2458 55.5371C75.3664 55.4337 75.4612 55.3046 75.5301 55.1495C75.599 54.9945 75.6334 54.8108 75.6334 54.5983C75.6334 54.4088 75.599 54.2366 75.5301 54.0815C75.4612 53.9265 75.3664 53.7944 75.2458 53.6853C75.1253 53.5705 74.9846 53.4844 74.8238 53.427C74.663 53.3638 74.4879 53.3322 74.2984 53.3322C74.109 53.3322 73.931 53.3609 73.7644 53.4184C73.6037 53.47 73.4601 53.5504 73.3338 53.6595C73.2132 53.7686 73.1156 53.9007 73.041 54.0557C72.9721 54.2107 72.9376 54.3859 72.9376 54.5811ZM74.2726 57.1563C74.4563 57.1563 74.6257 57.1333 74.7808 57.0874C74.9415 57.0472 75.0822 56.9783 75.2028 56.8807C75.3234 56.7831 75.421 56.6568 75.4956 56.5017C75.5703 56.3524 75.6162 56.1658 75.6334 55.9419C75.4841 56.1256 75.2889 56.2663 75.0477 56.3639C74.8066 56.4558 74.5482 56.5017 74.2726 56.5017C73.9511 56.5017 73.6611 56.4587 73.4027 56.3725C73.1443 56.2807 72.9233 56.1515 72.7395 55.985C72.5615 55.8127 72.4237 55.6089 72.3261 55.3735C72.2285 55.138 72.1797 54.8739 72.1797 54.5811C72.1797 54.2825 72.2314 54.0126 72.3347 53.7715C72.4438 53.5246 72.5931 53.3179 72.7826 53.1514C72.9721 52.9848 73.196 52.8557 73.4544 52.7638C73.7128 52.6719 73.9941 52.626 74.2984 52.626C74.597 52.626 74.8726 52.6719 75.1253 52.7638C75.3836 52.8557 75.6047 52.9906 75.7884 53.1686C75.9779 53.3466 76.1243 53.5705 76.2277 53.8404C76.3368 54.1102 76.3913 54.4203 76.3913 54.7706V55.6405C76.3913 55.9735 76.3454 56.2749 76.2535 56.5448C76.1674 56.8147 76.0354 57.0443 75.8574 57.2338C75.6794 57.429 75.4583 57.5783 75.1942 57.6817C74.93 57.7908 74.6228 57.8453 74.2726 57.8453C74.1003 57.8453 73.9223 57.831 73.7386 57.8023C73.5606 57.7736 73.3855 57.7219 73.2132 57.6472C73.041 57.5726 72.8773 57.4692 72.7223 57.3372C72.5673 57.2109 72.4295 57.0472 72.3089 56.8462L72.9462 56.5276C73.13 56.7687 73.3252 56.9324 73.5319 57.0185C73.7386 57.1104 73.9855 57.1563 74.2726 57.1563Z" fill="#272727"/>
<path d="M67.5574 54.5983C67.5574 54.3055 67.6091 54.0385 67.7124 53.7973C67.8215 53.5562 67.9708 53.3495 68.1603 53.1772C68.3497 52.9992 68.5737 52.8643 68.8321 52.7724C69.0905 52.6748 69.3718 52.626 69.6761 52.626C69.9804 52.626 70.2618 52.6748 70.5202 52.7724C70.7786 52.8643 71.0025 52.9992 71.192 53.1772C71.3815 53.3495 71.5279 53.5562 71.6312 53.7973C71.7403 54.0385 71.7949 54.3055 71.7949 54.5983C71.7949 54.8911 71.7403 55.1581 71.6312 55.3993C71.5279 55.6405 71.3815 55.85 71.192 56.028C71.0025 56.2003 70.7786 56.3352 70.5202 56.4328C70.2618 56.5247 69.9804 56.5706 69.6761 56.5706C69.3718 56.5706 69.0905 56.5247 68.8321 56.4328C68.5737 56.3352 68.3497 56.2003 68.1603 56.028C67.9708 55.85 67.8215 55.6405 67.7124 55.3993C67.6091 55.1581 67.5574 54.8911 67.5574 54.5983ZM71.0369 54.5983C71.0369 54.3973 70.9996 54.2193 70.925 54.0643C70.8561 53.9035 70.7613 53.7715 70.6408 53.6681C70.5202 53.559 70.3766 53.4758 70.2101 53.4184C70.0436 53.3609 69.8656 53.3322 69.6761 53.3322C69.4866 53.3322 69.3086 53.3609 69.1421 53.4184C68.9814 53.4758 68.8378 53.559 68.7115 53.6681C68.5909 53.7715 68.4933 53.9035 68.4187 54.0643C68.3498 54.2193 68.3153 54.3973 68.3153 54.5983C68.3153 54.7993 68.3498 54.9801 68.4187 55.1409C68.4933 55.2959 68.5909 55.428 68.7115 55.5371C68.8378 55.6462 68.9814 55.7295 69.1421 55.7869C69.3086 55.8385 69.4866 55.8644 69.6761 55.8644C69.8656 55.8644 70.0436 55.8385 70.2101 55.7869C70.3766 55.7295 70.5202 55.6462 70.6408 55.5371C70.7613 55.428 70.8561 55.2959 70.925 55.1409C70.9996 54.9801 71.0369 54.7993 71.0369 54.5983Z" fill="#272727"/>
<path d="M67.8198 56.4242C67.6878 56.4701 67.5586 56.5017 67.4323 56.519C67.3117 56.5419 67.1997 56.5534 67.0964 56.5534C66.8035 56.5534 66.5566 56.5132 66.3557 56.4328C66.1604 56.3467 66.0026 56.229 65.882 56.0797C65.7614 55.9247 65.6753 55.7409 65.6236 55.5285C65.5777 55.316 65.5547 55.0777 65.5547 54.8136V51.4805H66.2954V54.7964C66.2954 55.1352 66.3557 55.3964 66.4763 55.5802C66.5968 55.7639 66.7949 55.8558 67.0705 55.8558C67.1509 55.8558 67.2342 55.85 67.3203 55.8385C67.4064 55.8271 67.4983 55.8041 67.5959 55.7696L67.8198 56.4242Z" fill="#272727"/>
<path d="M60.9038 54.5983C60.9038 54.3055 60.9555 54.0385 61.0588 53.7973C61.1679 53.5562 61.3172 53.3495 61.5067 53.1772C61.6962 52.9992 61.9201 52.8643 62.1785 52.7724C62.4369 52.6748 62.7182 52.626 63.0226 52.626C63.3269 52.626 63.6082 52.6748 63.8666 52.7724C64.125 52.8643 64.3489 52.9992 64.5384 53.1772C64.7279 53.3495 64.8743 53.5562 64.9777 53.7973C65.0868 54.0385 65.1413 54.3055 65.1413 54.5983C65.1413 54.8911 65.0868 55.1581 64.9777 55.3993C64.8743 55.6405 64.7279 55.85 64.5384 56.028C64.3489 56.2003 64.125 56.3352 63.8666 56.4328C63.6082 56.5247 63.3269 56.5706 63.0226 56.5706C62.7182 56.5706 62.4369 56.5247 62.1785 56.4328C61.9201 56.3352 61.6962 56.2003 61.5067 56.028C61.3172 55.85 61.1679 55.6405 61.0588 55.3993C60.9555 55.1581 60.9038 54.8911 60.9038 54.5983ZM64.3834 54.5983C64.3834 54.3973 64.3461 54.2193 64.2714 54.0643C64.2025 53.9035 64.1078 53.7715 63.9872 53.6681C63.8666 53.559 63.7231 53.4758 63.5565 53.4184C63.39 53.3609 63.212 53.3322 63.0226 53.3322C62.8331 53.3322 62.6551 53.3609 62.4886 53.4184C62.3278 53.4758 62.1842 53.559 62.0579 53.6681C61.9373 53.7715 61.8397 53.9035 61.7651 54.0643C61.6962 54.2193 61.6617 54.3973 61.6617 54.5983C61.6617 54.7993 61.6962 54.9801 61.7651 55.1409C61.8397 55.2959 61.9373 55.428 62.0579 55.5371C62.1842 55.6462 62.3278 55.7295 62.4886 55.7869C62.6551 55.8385 62.8331 55.8644 63.0226 55.8644C63.212 55.8644 63.39 55.8385 63.5565 55.7869C63.7231 55.7295 63.8666 55.6462 63.9872 55.5371C64.1078 55.428 64.2025 55.2959 64.2714 55.1409C64.3461 54.9801 64.3834 54.7993 64.3834 54.5983Z" fill="#272727"/>
<path d="M57.0854 52.7034V54.4345C57.0854 54.8709 57.2003 55.2068 57.4299 55.4422C57.6596 55.6777 57.9697 55.7954 58.3601 55.7954C58.7563 55.7954 59.075 55.6863 59.3161 55.4681C59.563 55.2499 59.6865 54.9169 59.6865 54.469V52.7034H60.4272V55.6403C60.4272 55.9734 60.3813 56.2748 60.2894 56.5447C60.2033 56.8145 60.0712 57.0442 59.8932 57.2337C59.7152 57.4289 59.4941 57.5782 59.23 57.6816C58.9659 57.7907 58.6587 57.8452 58.3084 57.8452C58.1362 57.8452 57.9582 57.8309 57.7744 57.8021C57.5965 57.7734 57.4213 57.7218 57.2491 57.6471C57.0768 57.5725 56.9132 57.4691 56.7581 57.337C56.6031 57.2107 56.4653 57.0471 56.3447 56.8461L56.9821 56.5274C57.1658 56.7686 57.361 56.9322 57.5677 57.0184C57.7744 57.1102 58.0213 57.1562 58.3084 57.1562C58.4922 57.1562 58.6644 57.1332 58.8252 57.0873C58.986 57.0413 59.1267 56.9667 59.2472 56.8633C59.3678 56.76 59.4654 56.6308 59.5401 56.4758C59.6147 56.315 59.6578 56.1226 59.6693 55.8987C59.5372 56.0939 59.3506 56.2432 59.1094 56.3466C58.8683 56.4442 58.6099 56.493 58.3343 56.493C58.0127 56.493 57.7256 56.4413 57.473 56.338C57.2261 56.2289 57.0194 56.0825 56.8529 55.8987C56.6864 55.715 56.56 55.4997 56.4739 55.2528C56.3878 55.0001 56.3447 54.7302 56.3447 54.4432V52.7034H57.0854Z" fill="#272727"/>
<path d="M55.0153 52.626C55.3886 52.626 55.7302 52.7006 56.0403 52.8499L55.7216 53.5217C55.6125 53.4643 55.4977 53.4212 55.3771 53.3925C55.2565 53.3581 55.1388 53.3408 55.024 53.3408C54.6335 53.3408 54.3321 53.4614 54.1196 53.7026C53.9129 53.938 53.8095 54.271 53.8095 54.7017V56.4931H53.0688V54.65C53.0688 54.3571 53.1119 54.0873 53.198 53.8404C53.2842 53.5935 53.4105 53.381 53.577 53.203C53.7435 53.0193 53.9474 52.8786 54.1885 52.781C54.4297 52.6777 54.7053 52.626 55.0153 52.626Z" fill="#272727"/>
<path d="M49.1706 53.1858C49.3199 53.0193 49.518 52.8844 49.7649 52.781C50.0118 52.6776 50.2788 52.626 50.5659 52.626C50.876 52.626 51.1573 52.6748 51.41 52.7724C51.6626 52.8643 51.8808 52.9992 52.0645 53.1772C52.2483 53.3494 52.3889 53.5562 52.4866 53.7973C52.5899 54.0385 52.6416 54.3055 52.6416 54.5983C52.6416 54.9026 52.587 55.1782 52.4779 55.4251C52.3746 55.6663 52.2282 55.873 52.0387 56.0452C51.8492 56.2118 51.6253 56.341 51.3669 56.4328C51.1143 56.5247 50.8386 56.5706 50.5401 56.5706C50.2415 56.5706 49.963 56.5247 49.7046 56.4328C49.4462 56.341 49.2223 56.206 49.0328 56.028C48.8433 55.85 48.6941 55.629 48.585 55.3648C48.4816 55.095 48.4299 54.7849 48.4299 54.4347V51.4805H49.1706V53.1858ZM51.8837 54.5983C51.8837 54.3973 51.8492 54.2193 51.7803 54.0643C51.7114 53.9035 51.6167 53.7715 51.4961 53.6681C51.3755 53.559 51.232 53.4758 51.0654 53.4183C50.9047 53.3609 50.7295 53.3322 50.5401 53.3322C50.3506 53.3322 50.1726 53.3581 50.0061 53.4097C49.8453 53.4614 49.7046 53.5418 49.584 53.6509C49.4635 53.7542 49.3659 53.8863 49.2912 54.0471C49.2223 54.2021 49.1879 54.3858 49.1879 54.5983C49.1879 54.7878 49.2223 54.96 49.2912 55.1151C49.3659 55.2701 49.4635 55.405 49.584 55.5199C49.7046 55.629 49.8453 55.7151 50.0061 55.7783C50.1726 55.8357 50.3506 55.8644 50.5401 55.8644C50.7295 55.8644 50.9047 55.8385 51.0654 55.7869C51.232 55.7294 51.3755 55.6462 51.4961 55.5371C51.6167 55.428 51.7114 55.2959 51.7803 55.1409C51.8492 54.9801 51.8837 54.7993 51.8837 54.5983Z" fill="#272727"/>
<path d="M46.1638 52.626C46.606 52.626 46.9706 52.7351 47.2577 52.9533C47.5448 53.1657 47.7285 53.4729 47.8089 53.8748C47.8376 54.0012 47.8548 54.139 47.8606 54.2882C47.8663 54.4318 47.8692 54.5753 47.8692 54.7189V56.4931H47.1285V54.5811C47.1285 54.2136 47.051 53.915 46.8959 53.6853C46.7466 53.4499 46.5026 53.3322 46.1638 53.3322C45.8423 53.3322 45.604 53.4384 45.449 53.6509C45.294 53.8576 45.2164 54.1418 45.2164 54.5036V56.4931H44.4757V54.5036C44.4757 54.1418 44.3982 53.8576 44.2432 53.6509C44.0882 53.4384 43.8499 53.3322 43.5283 53.3322C43.1896 53.3322 42.9427 53.4499 42.7876 53.6853C42.6383 53.915 42.5637 54.2136 42.5637 54.5811V56.4931H41.823V54.7189C41.823 54.5753 41.8259 54.4318 41.8316 54.2882C41.8374 54.139 41.8546 54.0012 41.8833 53.8748C41.9637 53.4729 42.1474 53.1657 42.4345 52.9533C42.7216 52.7351 43.0862 52.626 43.5283 52.626C44.1197 52.626 44.559 52.8844 44.8461 53.4011C45.1332 52.8844 45.5724 52.626 46.1638 52.626Z" fill="#272727"/>
<path d="M41.2659 52.2298H39.5692C39.3395 52.2298 39.127 52.2556 38.9318 52.3073C38.7423 52.3532 38.5758 52.4307 38.4323 52.5398C38.2887 52.6489 38.1739 52.7896 38.0878 52.9619C38.0074 53.1284 37.9643 53.3322 37.9586 53.5734H41.2487V54.3141H37.9586C37.9586 54.5725 37.9959 54.7935 38.0705 54.9773C38.1509 55.1553 38.2629 55.3017 38.4064 55.4165C38.55 55.5314 38.7194 55.6146 38.9146 55.6663C39.1098 55.718 39.328 55.7438 39.5692 55.7438H41.2659V56.4931H39.5692C39.2074 56.4931 38.8773 56.4472 38.5787 56.3553C38.2859 56.2577 38.0332 56.117 37.8208 55.9333C37.6141 55.7495 37.4533 55.5227 37.3384 55.2529C37.2294 54.983 37.1748 54.6701 37.1748 54.3141V53.6595C37.1748 53.3035 37.2294 52.9906 37.3384 52.7207C37.4533 52.4508 37.6141 52.224 37.8208 52.0403C38.0332 51.8566 38.2859 51.7188 38.5787 51.6269C38.8773 51.5293 39.2074 51.4805 39.5692 51.4805H41.2659V52.2298Z" fill="#272727"/>
<path d="M31.239 53.8404C31.239 53.6337 31.2906 53.4557 31.394 53.3064C31.5031 53.1514 31.6409 53.025 31.8074 52.9274C31.9797 52.8241 32.1691 52.7494 32.3758 52.7035C32.5883 52.6518 32.8007 52.626 33.0132 52.626C33.3462 52.626 33.6534 52.669 33.9348 52.7552C34.2219 52.8413 34.4946 52.9791 34.753 53.1686L34.2707 53.7112C34.0984 53.5791 33.9061 53.4815 33.6936 53.4184C33.4812 53.3552 33.2572 53.3236 33.0218 53.3236C32.9012 53.3236 32.7807 53.3351 32.6601 53.3581C32.5395 53.3753 32.4304 53.4069 32.3328 53.4528C32.2352 53.493 32.1548 53.5447 32.0916 53.6078C32.0342 53.671 32.0055 53.7456 32.0055 53.8318C32.0055 53.9811 32.0687 54.0815 32.195 54.1332C32.3213 54.1791 32.4763 54.2021 32.6601 54.2021H33.4783C33.685 54.2021 33.8745 54.2222 34.0467 54.2624C34.2247 54.2969 34.3769 54.3571 34.5032 54.4433C34.6295 54.5237 34.7271 54.6328 34.796 54.7706C34.8707 54.9084 34.908 55.0778 34.908 55.2787C34.908 55.4969 34.8563 55.6864 34.753 55.8472C34.6554 56.0079 34.5176 56.1429 34.3396 56.252C34.1673 56.3553 33.9635 56.4357 33.7281 56.4931C33.4984 56.5448 33.2544 56.5706 32.996 56.5706C32.6285 56.5706 32.2754 56.5132 31.9366 56.3984C31.5978 56.2835 31.2849 56.0912 30.9978 55.8213L31.5318 55.2529C31.6983 55.4194 31.9021 55.5629 32.1433 55.6835C32.3845 55.8041 32.6629 55.8644 32.9787 55.8644C33.1051 55.8644 33.2343 55.8558 33.3663 55.8385C33.5041 55.8156 33.6304 55.7811 33.7453 55.7352C33.8601 55.6893 33.9549 55.629 34.0295 55.5543C34.1041 55.4797 34.1415 55.3878 34.1415 55.2787C34.1415 55.1179 34.0726 55.0175 33.9348 54.9773C33.797 54.9313 33.6161 54.9084 33.3922 54.9084H32.7548C32.5711 54.9084 32.3902 54.8969 32.2122 54.8739C32.0342 54.8509 31.8706 54.8021 31.7213 54.7275C31.5777 54.6529 31.46 54.5466 31.3682 54.4088C31.282 54.2653 31.239 54.0758 31.239 53.8404Z" fill="#272727"/>
<path d="M29.0661 55.8644C29.5427 55.8644 29.9561 55.6979 30.3064 55.3648L30.7801 55.8816C30.5217 56.1285 30.2547 56.3065 29.9791 56.4156C29.7092 56.519 29.4049 56.5706 29.0661 56.5706C28.7618 56.5706 28.4804 56.5247 28.2221 56.4328C27.9694 56.3352 27.7484 56.2003 27.5589 56.028C27.3751 55.85 27.2287 55.6405 27.1196 55.3993C27.0163 55.1581 26.9646 54.8911 26.9646 54.5983C26.9646 54.3055 27.0163 54.0385 27.1196 53.7973C27.2287 53.5562 27.3751 53.3495 27.5589 53.1772C27.7484 52.9992 27.9694 52.8643 28.2221 52.7724C28.4804 52.6748 28.7618 52.626 29.0661 52.626C29.3934 52.626 29.6891 52.6719 29.9532 52.7638C30.2174 52.8499 30.4671 52.9906 30.7026 53.1858L30.2375 53.7456C30.0537 53.6021 29.8729 53.4987 29.6949 53.4356C29.5169 53.3667 29.3073 53.3322 29.0661 53.3322C28.8766 53.3322 28.6986 53.3609 28.5321 53.4184C28.3714 53.4758 28.2307 53.559 28.1101 53.6681C27.9895 53.7715 27.8948 53.9035 27.8259 54.0643C27.757 54.2193 27.7225 54.3973 27.7225 54.5983C27.7225 54.7993 27.757 54.9801 27.8259 55.1409C27.8948 55.2959 27.9895 55.428 28.1101 55.5371C28.2307 55.6462 28.3714 55.7295 28.5321 55.7869C28.6986 55.8385 28.8766 55.8644 29.0661 55.8644Z" fill="#272727"/>
<path d="M26.4946 52.7034V56.4931H25.7539V52.7034H26.4946ZM26.4946 51.3943V52.1608H25.7539V51.3943H26.4946Z" fill="#272727"/>
<path d="M22.5532 51.9369V52.7034H25.137V53.4183H22.5532V54.3915C22.5532 54.5982 22.5676 54.7906 22.5963 54.9686C22.6307 55.1466 22.6881 55.3016 22.7685 55.4337C22.8489 55.5657 22.958 55.672 23.0958 55.7524C23.2394 55.827 23.4202 55.8643 23.6384 55.8643C23.8968 55.8643 24.1064 55.7925 24.2671 55.649C24.4337 55.5055 24.5801 55.2873 24.7064 54.9944L25.3265 55.3217C25.16 55.7294 24.9361 56.0394 24.6547 56.2519C24.3734 56.4643 24.0346 56.5706 23.6384 56.5706C23.0125 56.5706 22.5503 56.3782 22.2518 55.9935C21.9589 55.6031 21.8125 55.049 21.8125 54.3312V51.9369H22.5532Z" fill="#272727"/>
<path d="M21.2192 55.9591C20.9838 56.1773 20.7225 56.3352 20.4354 56.4328C20.1483 56.5247 19.8584 56.5706 19.5655 56.5706C19.2669 56.5706 18.9885 56.5247 18.7301 56.4328C18.4717 56.341 18.2478 56.2118 18.0583 56.0453C17.8688 55.873 17.7195 55.6663 17.6104 55.4251C17.5013 55.184 17.4468 54.9141 17.4468 54.6155C17.4468 54.317 17.4985 54.0471 17.6018 53.8059C17.7109 53.559 17.8573 53.3495 18.0411 53.1772C18.2305 52.9992 18.4516 52.8643 18.7042 52.7724C18.9626 52.6748 19.244 52.626 19.5483 52.626C19.7665 52.626 19.9789 52.6547 20.1856 52.7121C20.3981 52.7695 20.5847 52.8528 20.7455 52.9619C20.912 53.071 21.0441 53.2059 21.1417 53.3667C21.245 53.5217 21.2967 53.6997 21.2967 53.9007C21.2967 54.1074 21.2594 54.2825 21.1847 54.426C21.1101 54.5639 21.0039 54.6758 20.8661 54.7619C20.734 54.8423 20.5732 54.8998 20.3837 54.9342C20.2 54.9687 19.9962 54.9859 19.7722 54.9859H18.265C18.3454 55.2615 18.5033 55.4768 18.7387 55.6318C18.9741 55.7869 19.2583 55.8644 19.5914 55.8644C19.7636 55.8644 19.9502 55.8385 20.1512 55.7869C20.3579 55.7295 20.5445 55.6232 20.711 55.4682L21.2192 55.9591ZM19.7722 54.3055C19.8756 54.3055 19.9732 54.3026 20.0651 54.2969C20.1627 54.2854 20.2459 54.2681 20.3148 54.2452C20.3837 54.2165 20.4383 54.1763 20.4785 54.1246C20.5244 54.0672 20.5474 53.9925 20.5474 53.9007C20.5474 53.8031 20.5187 53.7198 20.4613 53.6509C20.4038 53.5763 20.3292 53.516 20.2373 53.47C20.1455 53.4241 20.0392 53.3896 19.9186 53.3667C19.8038 53.3437 19.6832 53.3322 19.5569 53.3322C19.2239 53.3322 18.9368 53.4126 18.6956 53.5734C18.4545 53.7342 18.3023 53.9782 18.2392 54.3055H19.7722Z" fill="#272727"/>
<path d="M14.9375 53.3322C14.5241 53.3322 14.2025 53.4528 13.9728 53.694C13.7489 53.9294 13.6369 54.2624 13.6369 54.693V56.4931H12.8962V54.65C12.8962 54.3571 12.9422 54.0873 13.034 53.8404C13.1259 53.5935 13.258 53.381 13.4302 53.203C13.6082 53.0193 13.8236 52.8786 14.0762 52.781C14.3288 52.6777 14.6159 52.626 14.9375 52.626C15.259 52.626 15.5461 52.6777 15.7988 52.781C16.0514 52.8786 16.2638 53.0193 16.4361 53.203C16.6084 53.381 16.7404 53.5935 16.8323 53.8404C16.9242 54.0873 16.9701 54.3571 16.9701 54.65V56.4931H16.2294V54.693C16.2294 54.2624 16.1174 53.9294 15.8935 53.694C15.6696 53.4528 15.3509 53.3322 14.9375 53.3322Z" fill="#272727"/>
<path d="M12.3876 55.9591C12.1522 56.1773 11.891 56.3352 11.6039 56.4328C11.3168 56.5247 11.0268 56.5706 10.734 56.5706C10.4354 56.5706 10.1569 56.5247 9.89854 56.4328C9.64016 56.341 9.41622 56.2118 9.22674 56.0453C9.03726 55.873 8.88797 55.6663 8.77888 55.4251C8.66978 55.184 8.61523 54.9141 8.61523 54.6155C8.61523 54.317 8.66691 54.0471 8.77026 53.8059C8.87936 53.559 9.02578 53.3495 9.20952 53.1772C9.399 52.9992 9.62006 52.8643 9.8727 52.7724C10.1311 52.6748 10.4124 52.626 10.7168 52.626C10.9349 52.626 11.1474 52.6547 11.3541 52.7121C11.5666 52.7695 11.7532 52.8528 11.9139 52.9619C12.0804 53.071 12.2125 53.2059 12.3101 53.3667C12.4135 53.5217 12.4652 53.6997 12.4652 53.9007C12.4652 54.1074 12.4278 54.2825 12.3532 54.426C12.2785 54.5639 12.1723 54.6758 12.0345 54.7619C11.9024 54.8423 11.7417 54.8998 11.5522 54.9342C11.3685 54.9687 11.1646 54.9859 10.9407 54.9859H9.43345C9.51384 55.2615 9.67174 55.4768 9.90715 55.6318C10.1426 55.7869 10.4268 55.8644 10.7598 55.8644C10.9321 55.8644 11.1187 55.8385 11.3197 55.7869C11.5264 55.7295 11.713 55.6232 11.8795 55.4682L12.3876 55.9591ZM10.9407 54.3055C11.044 54.3055 11.1417 54.3026 11.2335 54.2969C11.3311 54.2854 11.4144 54.2681 11.4833 54.2452C11.5522 54.2165 11.6067 54.1763 11.6469 54.1246C11.6929 54.0672 11.7158 53.9925 11.7158 53.9007C11.7158 53.8031 11.6871 53.7198 11.6297 53.6509C11.5723 53.5763 11.4976 53.516 11.4058 53.47C11.3139 53.4241 11.2077 53.3896 11.0871 53.3667C10.9723 53.3437 10.8517 53.3322 10.7254 53.3322C10.3923 53.3322 10.1052 53.4126 9.86409 53.5734C9.62293 53.7342 9.47077 53.9782 9.40761 54.3055H10.9407Z" fill="#272727"/>
<path d="M5.82456 51.3943C6.26094 51.3943 6.65426 51.4603 7.00451 51.5924C7.36051 51.7187 7.69066 51.9111 7.99498 52.1694L7.50405 52.7637C7.2629 52.5455 7.00451 52.3876 6.7289 52.29C6.45329 52.1867 6.15185 52.135 5.82456 52.135C5.53747 52.135 5.27334 52.1838 5.03218 52.2814C4.79677 52.379 4.59293 52.5111 4.42068 52.6776C4.24842 52.8441 4.11349 53.0393 4.01587 53.2633C3.924 53.4872 3.87807 53.7284 3.87807 53.9867C3.87807 54.2796 3.93262 54.5408 4.04171 54.7705C4.15081 54.9944 4.3001 55.1868 4.48958 55.3476C4.67906 55.5083 4.90012 55.6318 5.15276 55.7179C5.41115 55.7983 5.68963 55.8385 5.9882 55.8385C6.41884 55.8385 6.77197 55.761 7.04758 55.6059C7.32893 55.4452 7.4696 55.2155 7.4696 54.9169C7.4696 54.7734 7.41793 54.6471 7.31457 54.538C7.21122 54.4231 7.01887 54.3657 6.73752 54.3657H5.00635V53.6164H6.7289C6.98729 53.6164 7.21122 53.648 7.4007 53.7111C7.59018 53.7743 7.74521 53.8633 7.86579 53.9781C7.99211 54.093 8.08398 54.2308 8.1414 54.3915C8.19882 54.5466 8.22753 54.7188 8.22753 54.9083C8.22753 55.1552 8.17585 55.382 8.0725 55.5887C7.96914 55.7897 7.81699 55.9648 7.61602 56.1141C7.4208 56.2576 7.17677 56.3725 6.88393 56.4586C6.59684 56.539 6.26668 56.5792 5.89346 56.5792C5.48579 56.5792 5.1097 56.516 4.76519 56.3897C4.42068 56.2576 4.1221 56.0768 3.86946 55.8471C3.62256 55.6117 3.4302 55.3361 3.2924 55.0203C3.1546 54.6987 3.08569 54.3513 3.08569 53.9781C3.08569 53.6106 3.15172 53.2719 3.28379 52.9618C3.41585 52.646 3.59959 52.3733 3.83501 52.1436C4.07616 51.9082 4.36326 51.7244 4.69629 51.5924C5.03505 51.4603 5.41115 51.3943 5.82456 51.3943Z" fill="#272727"/>
<path d="M153.146 13.8148C153.146 11.6758 153.657 9.8158 154.68 8.23481C155.75 6.60731 157.122 5.28206 158.796 4.25906C160.47 3.23606 162.353 2.46881 164.445 1.95731C166.538 1.44581 168.63 1.19006 170.723 1.19006C171.885 1.19006 173.141 1.25981 174.489 1.39931C175.884 1.53881 177.326 1.79456 178.814 2.16656C180.302 2.53856 181.813 3.09656 183.348 3.84056C184.929 4.53806 186.463 5.44481 187.951 6.56081L184.115 11.5131C182.255 10.1646 180.209 9.11831 177.977 8.37431C175.745 7.58381 173.35 7.18856 170.793 7.18856C169.212 7.18856 167.724 7.32806 166.329 7.60706C164.98 7.83956 163.794 8.23481 162.771 8.79281C161.795 9.3043 161.004 9.97855 160.4 10.8156C159.842 11.6061 159.563 12.5826 159.563 13.7451C159.563 15.6981 160.284 17.0233 161.725 17.7208C163.213 18.3718 165.027 18.6973 167.166 18.6973H175.605C177.651 18.6973 179.535 18.9065 181.255 19.325C182.976 19.697 184.464 20.348 185.719 21.278C186.975 22.1615 187.951 23.324 188.649 24.7655C189.393 26.1605 189.765 27.8578 189.765 29.8573C189.765 32.1358 189.276 34.112 188.3 35.786C187.323 37.46 185.975 38.855 184.254 39.971C182.58 41.0405 180.604 41.8543 178.326 42.4123C176.047 42.9238 173.629 43.1795 171.072 43.1795C169.491 43.1795 167.817 43.04 166.05 42.761C164.329 42.482 162.585 42.0635 160.818 41.5055C159.051 40.901 157.308 40.1105 155.587 39.134C153.913 38.1575 152.332 36.9718 150.844 35.5768L155.169 30.6943C157.261 32.6938 159.609 34.2748 162.213 35.4373C164.817 36.5998 167.561 37.181 170.444 37.181C172.211 37.181 173.885 37.0415 175.466 36.7625C177.047 36.4835 178.419 36.0418 179.581 35.4373C180.744 34.8328 181.65 34.0655 182.301 33.1355C182.999 32.2055 183.348 31.0663 183.348 29.7178C183.348 28.6948 183.138 27.8578 182.72 27.2068C182.301 26.5558 181.72 26.0675 180.976 25.742C180.279 25.37 179.395 25.1375 178.326 25.0445C177.303 24.905 176.163 24.8353 174.908 24.8353H168.212C166.398 24.8353 164.585 24.719 162.771 24.4865C161.004 24.2075 159.4 23.6728 157.959 22.8823C156.517 22.0918 155.355 20.9758 154.471 19.5343C153.588 18.0928 153.146 16.1863 153.146 13.8148Z" fill="#272727"/>
<path d="M151.215 7.95569H137.474C135.614 7.95569 133.893 8.16494 132.312 8.58344C130.778 8.95544 129.429 9.58319 128.267 10.4667C127.104 11.3502 126.174 12.4894 125.477 13.8844C124.826 15.2329 124.477 16.8837 124.431 18.8367H151.075V24.8352H124.431C124.431 26.9277 124.733 28.7179 125.337 30.2059C125.988 31.6474 126.895 32.8332 128.058 33.7632C129.22 34.6932 130.592 35.3674 132.173 35.7859C133.754 36.2044 135.521 36.4137 137.474 36.4137H151.215V42.4819H137.474C134.544 42.4819 131.871 42.1099 129.453 41.3659C127.081 40.5754 125.035 39.4362 123.315 37.9482C121.641 36.4602 120.339 34.6234 119.409 32.4379C118.525 30.2524 118.083 27.7182 118.083 24.8352V19.5342C118.083 16.6512 118.525 14.1169 119.409 11.9314C120.339 9.74594 121.641 7.9092 123.315 6.4212C125.035 4.9332 127.081 3.8172 129.453 3.0732C131.871 2.2827 134.544 1.88745 137.474 1.88745H151.215V7.95569Z" fill="#272727"/>
<path d="M80.2372 8.75323C75.0431 27.751 79.9111 41.0386 82.9943 45.3077C81.7492 35.5241 82.1049 26.5414 82.4607 24.14C82.8164 21.7386 83.528 13.8229 86.9077 11.3326C90.2875 8.84225 92.9557 14.0897 95.3571 20.3156C97.7585 26.5414 101.138 31.9668 101.672 32.8562C102.206 33.7456 112.345 41.2166 114.657 26.5414C116.507 13.2359 113.886 4.98815 112.345 2.52746C112.914 15.833 110.744 24.0807 109.588 26.5414C108.491 29.1207 105.265 31.4865 101.138 20.3156C95.9797 6.35191 92.7778 1.81583 90.7322 0.748541C88.6865 -0.318747 82.9943 -1.29709 80.2372 8.75323Z" fill="#CE2127"/>
<path d="M92.2617 12.5014C90.9915 14.0538 84.8758 14.101 84.076 14.0068L82.2883 16.8765C89.138 14.5055 92.983 14.7596 94.0494 15.183C93.8769 13.7717 93.2778 11.2595 92.2617 12.5014Z" fill="#CE2127"/>
<path d="M86.3345 20.64C91.2647 20.7529 94.2849 18.962 95.1787 18.0525L97.4369 21.4397C97.2958 21.33 96.1422 20.9505 90.5345 21.4397C84.9269 21.929 81.8025 23.8076 81.2067 24.5446L80.6421 20.64C80.4853 20.5929 81.4042 20.5271 86.3345 20.64Z" fill="#CE2127"/>
<path d="M98.63 23.0045C94.9597 29.1706 80.807 27.174 80.3079 27.174V31.3118C91.4683 27.2768 98.5431 27.7333 100.685 28.4659L98.63 23.0045Z" fill="#CE2127"/>
<path d="M113.519 11.584C107.258 14.7814 99.549 14.6926 96.4773 14.2485L98.1427 17.8569C107.913 13.7268 113.057 15.1368 114.408 16.358L113.519 11.584Z" fill="#CE2127"/>
<path d="M113.519 18.634C109.212 21.1654 102.103 21.3171 99.0864 21.0766L100.252 24.5183C104.96 21.1876 111.058 22.0573 113.519 22.9085V18.634Z" fill="#CE2127"/>
<circle cx="90.4962" cy="14.8303" r="1.0895" fill="#272727"/>
<circle cx="91.5861" cy="21.052" r="1.0895" fill="#272727"/>
<circle cx="92.8437" cy="27.8097" r="1.0895" fill="#272727"/>
<circle cx="190.302" cy="53.643" r="2.03803" fill="#272727"/>
</svg>
