<svg width="25" height="25" viewBox="0 0 25 25" fill="none" xmlns="http://www.w3.org/2000/svg">
<mask id="mask0_364_2116" style="mask-type:luminance" maskUnits="userSpaceOnUse" x="0" y="0" width="25" height="25">
<rect x="0.811523" y="0.113892" width="24.0125" height="24.0125" fill="white"/>
</mask>
<g mask="url(#mask0_364_2116)">
<path fill-rule="evenodd" clip-rule="evenodd" d="M22.6283 10.1606H21.8224V10.1191H12.8177V14.1212H18.4722C17.6472 16.4509 15.4306 18.1233 12.8177 18.1233C9.50248 18.1233 6.81458 15.4354 6.81458 12.1201C6.81458 8.80491 9.50248 6.11701 12.8177 6.11701C14.348 6.11701 15.7402 6.69431 16.8003 7.6373L19.6303 4.80733C17.8433 3.14196 15.4531 2.11493 12.8177 2.11493C7.29233 2.11493 2.8125 6.59476 2.8125 12.1201C2.8125 17.6455 7.29233 22.1253 12.8177 22.1253C18.3431 22.1253 22.8229 17.6455 22.8229 12.1201C22.8229 11.4493 22.7539 10.7944 22.6283 10.1606Z" fill="#FFC107"/>
<path fill-rule="evenodd" clip-rule="evenodd" d="M3.96606 7.46321L7.25328 9.87397C8.14274 7.67182 10.2969 6.11701 12.8177 6.11701C14.348 6.11701 15.7402 6.69431 16.8002 7.6373L19.6302 4.80733C17.8433 3.14196 15.453 2.11493 12.8177 2.11493C8.97467 2.11493 5.64194 4.28456 3.96606 7.46321Z" fill="#FF3D00"/>
<path fill-rule="evenodd" clip-rule="evenodd" d="M12.8178 22.1253C15.4021 22.1253 17.7503 21.1363 19.5258 19.528L16.4292 16.9076C15.4246 17.6685 14.176 18.1233 12.8178 18.1233C10.2154 18.1233 8.00578 16.4639 7.17334 14.1482L3.91064 16.662C5.56651 19.9022 8.92926 22.1253 12.8178 22.1253Z" fill="#4CAF50"/>
<path fill-rule="evenodd" clip-rule="evenodd" d="M22.6285 10.1606H21.8226V10.1191H12.8179V14.1212H18.4723C18.0761 15.2402 17.3562 16.2052 16.4278 16.9081C16.4283 16.9076 16.4288 16.9076 16.4293 16.9071L19.5259 19.5275C19.3067 19.7266 22.8231 17.1227 22.8231 12.1201C22.8231 11.4493 22.754 10.7944 22.6285 10.1606Z" fill="#1976D2"/>
</g>
</svg>
