<svg width="6" height="11" viewBox="0 0 6 11" fill="none" xmlns="http://www.w3.org/2000/svg">
<path d="M4.63915 0.156433C4.31633 0.156433 4.00673 0.254761 3.77846 0.429785C3.55019 0.604809 3.42195 0.842194 3.42195 1.08972C3.42195 1.33724 3.55019 1.57462 3.77846 1.74965C4.00673 1.92467 4.31633 2.023 4.63915 2.023C4.96197 2.023 5.27157 1.92467 5.49984 1.74965C5.72811 1.57462 5.85635 1.33724 5.85635 1.08972C5.85635 0.842194 5.72811 0.604809 5.49984 0.429785C5.27157 0.254761 4.96197 0.156433 4.63915 0.156433ZM4.34702 3.12427C3.38138 3.18649 0.744121 4.79796 0.744121 4.79796C0.581828 4.89129 0.630517 4.88506 0.760351 5.05928C0.890185 5.22727 0.873956 5.23971 1.02813 5.15883C1.19043 5.07794 1.45821 4.94728 1.90452 4.73574C3.62482 3.88956 2.18041 5.84323 1.44198 9.13461C1.14985 10.7647 3.06491 9.92479 3.5599 9.67591C4.04678 9.43326 5.35324 8.74263 5.48307 8.67419C5.6616 8.58086 5.53176 8.5062 5.39381 8.35065C5.29644 8.24488 5.19906 8.31954 5.19906 8.31954C4.67161 8.58708 3.70597 9.14705 3.57613 8.79241C3.42195 8.43776 4.41194 6.005 4.95562 4.33132C5.04488 3.93312 5.28832 3.06205 4.34702 3.12427Z" fill="#8F9BB3"/>
</svg>
