<svg width="28" height="26" viewBox="0 0 28 26" fill="none" xmlns="http://www.w3.org/2000/svg">
<path fill-rule="evenodd" clip-rule="evenodd" d="M19 4C19.7652 3.99996 20.5015 4.29233 21.0583 4.81728C21.615 5.34224 21.9501 6.06011 21.995 6.824L22 7V11.35L22.594 11.086C23.208 10.813 23.916 11.236 23.994 11.884L24 12V20C24.0002 20.5046 23.8096 20.9906 23.4665 21.3605C23.1234 21.7305 22.6532 21.9572 22.15 21.995L22 22H6C5.49542 22.0002 5.00943 21.8096 4.63945 21.4665C4.26947 21.1234 4.04284 20.6532 4.005 20.15L4 20V12C4 11.328 4.675 10.853 5.297 11.045L5.407 11.086L6 11.35V7C5.99996 6.23479 6.29233 5.49849 6.81728 4.94174C7.34224 4.38499 8.06011 4.04989 8.824 4.005L9 4H19ZM22 13.539L14.812 16.733C14.5564 16.8466 14.2797 16.9053 14 16.9053C13.7203 16.9053 13.4436 16.8466 13.188 16.733L6 13.54V20H22V13.539ZM19 6H9C8.73478 6 8.48043 6.10536 8.29289 6.29289C8.10536 6.48043 8 6.73478 8 7V12.239L14 14.906L20 12.239V7C20 6.73478 19.8946 6.48043 19.7071 6.29289C19.5196 6.10536 19.2652 6 19 6ZM14 9C14.2549 9.00028 14.5 9.09788 14.6854 9.27285C14.8707 9.44782 14.9822 9.68695 14.9972 9.94139C15.0121 10.1958 14.9293 10.4464 14.7657 10.6418C14.6021 10.8373 14.3701 10.9629 14.117 10.993L14 11H12C11.7451 10.9997 11.5 10.9021 11.3146 10.7272C11.1293 10.5522 11.0178 10.313 11.0028 10.0586C10.9879 9.80416 11.0707 9.55362 11.2343 9.35817C11.3979 9.16271 11.6299 9.0371 11.883 9.007L12 9H14Z" fill="#8F9BB3"/>
</svg>
